<svg width="34" height="40" viewBox="0 0 34 40" fill="none" xmlns="http://www.w3.org/2000/svg">
<rect y="0.563965" width="33.1139" height="38.8718" rx="3.45196" fill="white"/>
<path d="M19.6142 18.4059C22.552 18.6937 24.9065 20.7618 25.3504 23.9301C25.8995 27.8497 23.4663 30.6884 17.9789 31.4571L10.0744 32.5645L6.87134 9.7002L14.6125 8.61574C16.801 8.30917 18.5772 8.62651 19.9041 9.53967C21.2637 10.4482 22.0346 11.6724 22.2588 13.2729C22.57 15.494 21.4968 17.3429 19.6142 18.4059ZM14.7624 11.8253L10.9081 12.3652L11.7638 18.4732L15.5854 17.9379C17.9045 17.613 19.0371 16.1887 18.7672 14.2616C18.5064 12.3998 17.0815 11.5004 14.7624 11.8253ZM13.2235 28.8928L17.3717 28.3117C20.6054 27.8587 22.032 26.3933 21.6796 23.8782C21.3502 21.5264 19.5719 20.2436 16.2729 20.7057L12.1573 21.2823L13.2235 28.8928Z" fill="black"/>
</svg>
