<svg width="37" height="37" viewBox="0 0 37 37" fill="none" xmlns="http://www.w3.org/2000/svg">
<g clip-path="url(#clip0_36_4413)">
<path d="M18.1688 0.563965C8.13454 0.563965 0 8.6985 0 18.7328C0 27.2532 5.86634 34.403 13.78 36.3667V24.2852H10.0335V18.7328H13.78V16.3403C13.78 10.1564 16.5787 7.29006 22.65 7.29006C23.8011 7.29006 25.7874 7.51608 26.5999 7.74137V12.7741C26.1711 12.7291 25.4262 12.7065 24.501 12.7065C21.522 12.7065 20.3709 13.8352 20.3709 16.7691V18.7328H26.3055L25.2859 24.2852H20.3709V36.7686C29.3673 35.6821 36.3383 28.0221 36.3383 18.7328C36.3376 8.6985 28.2031 0.563965 18.1688 0.563965Z" fill="white"/>
</g>
<defs>
<clipPath id="clip0_36_4413">
<rect width="36.3376" height="36.3376" fill="white" transform="translate(0 0.563965)"/>
</clipPath>
</defs>
</svg>
