<svg width="37" height="37" viewBox="0 0 37 37" fill="none" xmlns="http://www.w3.org/2000/svg">
<g clip-path="url(#clip0_36_4414)">
<path d="M18.5062 3.83577C23.3607 3.83577 23.9356 3.85706 25.8447 3.94223C27.619 4.0203 28.5771 4.31838 29.2159 4.56678C30.0604 4.89325 30.6708 5.29069 31.3024 5.92234C31.9412 6.56109 32.3315 7.16435 32.658 8.00892C32.9064 8.64766 33.2045 9.61288 33.2826 11.3801C33.3677 13.2963 33.389 13.8712 33.389 18.7186C33.389 23.5731 33.3677 24.1479 33.2826 26.0571C33.2045 27.8314 32.9064 28.7895 32.658 29.4282C32.3315 30.2728 31.9341 30.8832 31.3024 31.5148C30.6637 32.1536 30.0604 32.5439 29.2159 32.8704C28.5771 33.1188 27.6119 33.4169 25.8447 33.4949C23.9285 33.5801 23.3536 33.6014 18.5062 33.6014C13.6517 33.6014 13.0769 33.5801 11.1677 33.4949C9.39342 33.4169 8.4353 33.1188 7.79655 32.8704C6.95198 32.5439 6.34163 32.1465 5.70998 31.5148C5.07123 30.8761 4.68088 30.2728 4.35441 29.4282C4.10601 28.7895 3.80793 27.8243 3.72986 26.0571C3.64469 24.1408 3.6234 23.566 3.6234 18.7186C3.6234 13.8641 3.64469 13.2892 3.72986 11.3801C3.80793 9.60578 4.10601 8.64766 4.35441 8.00892C4.68088 7.16435 5.07833 6.55399 5.70998 5.92234C6.34872 5.2836 6.95198 4.89325 7.79655 4.56678C8.4353 4.31838 9.40051 4.0203 11.1677 3.94223C13.0769 3.85706 13.6517 3.83577 18.5062 3.83577ZM18.5062 0.563965C13.5737 0.563965 12.9562 0.585256 11.0187 0.670423C9.08824 0.755589 7.76106 1.06787 6.61132 1.51499C5.41189 1.9834 4.397 2.60086 3.38919 3.61576C2.3743 4.62356 1.75684 5.63846 1.28843 6.83078C0.841303 7.98763 0.529026 9.3077 0.44386 11.2381C0.358694 13.1828 0.337402 13.8002 0.337402 18.7328C0.337402 23.6653 0.358694 24.2828 0.44386 26.2203C0.529026 28.1507 0.841303 29.4779 1.28843 30.6277C1.75684 31.8271 2.3743 32.842 3.38919 33.8498C4.397 34.8576 5.41189 35.4821 6.60422 35.9435C7.76106 36.3906 9.08114 36.7029 11.0116 36.788C12.9491 36.8732 13.5666 36.8945 18.4991 36.8945C23.4317 36.8945 24.0491 36.8732 25.9866 36.788C27.9171 36.7029 29.2443 36.3906 30.394 35.9435C31.5863 35.4821 32.6012 34.8576 33.609 33.8498C34.6168 32.842 35.2414 31.8271 35.7027 30.6348C36.1498 29.4779 36.4621 28.1578 36.5473 26.2274C36.6324 24.2899 36.6537 23.6724 36.6537 18.7399C36.6537 13.8073 36.6324 13.1899 36.5473 11.2523C36.4621 9.3219 36.1498 7.99472 35.7027 6.84498C35.2556 5.63846 34.6381 4.62356 33.6232 3.61576C32.6154 2.60796 31.6005 1.9834 30.4082 1.52209C29.2514 1.07496 27.9313 0.762686 26.0008 0.67752C24.0562 0.585256 23.4388 0.563965 18.5062 0.563965Z" fill="white"/>
<path d="M18.5061 9.3999C13.3536 9.3999 9.17334 13.5801 9.17334 18.7327C9.17334 23.8853 13.3536 28.0655 18.5061 28.0655C23.6587 28.0655 27.8389 23.8853 27.8389 18.7327C27.8389 13.5801 23.6587 9.3999 18.5061 9.3999ZM18.5061 24.7866C15.1634 24.7866 12.4522 22.0755 12.4522 18.7327C12.4522 15.3899 15.1634 12.6788 18.5061 12.6788C21.8489 12.6788 24.56 15.3899 24.56 18.7327C24.56 22.0755 21.8489 24.7866 18.5061 24.7866Z" fill="white"/>
<path d="M30.387 9.03089C30.387 10.2374 29.4076 11.2097 28.2081 11.2097C27.0016 11.2097 26.0293 10.2303 26.0293 9.03089C26.0293 7.82437 27.0087 6.85205 28.2081 6.85205C29.4076 6.85205 30.387 7.83146 30.387 9.03089Z" fill="white"/>
</g>
<defs>
<clipPath id="clip0_36_4414">
<rect width="36.3376" height="36.3376" fill="white" transform="translate(0.337402 0.563965)"/>
</clipPath>
</defs>
</svg>
