<svg width="38" height="37" viewBox="0 0 38 37" fill="none" xmlns="http://www.w3.org/2000/svg">
<g clip-path="url(#clip0_36_4415)">
<path d="M34.3231 0.563965H3.35803C1.87472 0.563965 0.675293 1.735 0.675293 3.18283V34.2756C0.675293 35.7234 1.87472 36.9016 3.35803 36.9016H34.3231C35.8064 36.9016 37.0129 35.7234 37.0129 34.2827V3.18283C37.0129 1.735 35.8064 0.563965 34.3231 0.563965ZM11.4559 31.529H6.06206V14.1835H11.4559V31.529ZM8.75899 11.8201C7.02728 11.8201 5.62913 10.422 5.62913 8.69734C5.62913 6.97273 7.02728 5.57458 8.75899 5.57458C10.4836 5.57458 11.8818 6.97273 11.8818 8.69734C11.8818 10.4149 10.4836 11.8201 8.75899 11.8201ZM31.6403 31.529H26.2536V23.0975C26.2536 21.089 26.2181 18.4986 23.4502 18.4986C20.6468 18.4986 20.221 20.6916 20.221 22.9556V31.529H14.8413V14.1835H20.008V16.5539H20.079C20.7958 15.1913 22.5559 13.7505 25.1748 13.7505C30.6325 13.7505 31.6403 17.3417 31.6403 22.0117V31.529Z" fill="white"/>
</g>
<defs>
<clipPath id="clip0_36_4415">
<rect width="36.3376" height="36.3376" fill="white" transform="translate(0.675293 0.563965)"/>
</clipPath>
</defs>
</svg>
