<svg width="42" height="50" viewBox="0 0 42 50" fill="none" xmlns="http://www.w3.org/2000/svg">
<rect x="0.258301" y="0.5" width="41.7418" height="49" rx="4.35138" fill="#EB695D"/>
<path d="M24.9829 22.9907C28.6862 23.3536 31.6542 25.9605 32.2137 29.9543C32.9059 34.8952 29.8387 38.4735 22.9215 39.4425L12.9575 40.8383L8.91992 12.0167L18.6781 10.6497C21.4367 10.2633 23.6758 10.6633 25.3484 11.8144C27.0622 12.9597 28.034 14.5028 28.3167 16.5203C28.7089 19.3201 27.3561 21.6507 24.9829 22.9907ZM18.867 14.6955L14.0085 15.3761L15.0871 23.0756L19.9045 22.4007C22.8278 21.9912 24.2556 20.1959 23.9153 17.7666C23.5865 15.4197 21.7904 14.286 18.867 14.6955ZM16.9271 36.21L22.1562 35.4775C26.2324 34.9064 28.0307 33.0592 27.5866 29.8888C27.1713 26.9243 24.9296 25.3072 20.7711 25.8898L15.5832 26.6165L16.9271 36.21Z" fill="white"/>
</svg>
